<svg width="32" height="31" viewBox="0 0 32 31" fill="none" xmlns="http://www.w3.org/2000/svg">
<rect x="0.5" y="0.557617" width="31" height="29" rx="9.5" stroke="#8A6552"/>
<path d="M8 21.0576C8 19.9968 8.42143 18.9793 9.17157 18.2292C9.92172 17.479 10.9391 17.0576 12 17.0576H20C21.0609 17.0576 22.0783 17.479 22.8284 18.2292C23.5786 18.9793 24 19.9968 24 21.0576C24 21.5881 23.7893 22.0968 23.4142 22.4718C23.0391 22.8469 22.5304 23.0576 22 23.0576H10C9.46957 23.0576 8.96086 22.8469 8.58579 22.4718C8.21071 22.0968 8 21.5881 8 21.0576Z" stroke="#674337" stroke-width="1.5" stroke-linejoin="round"/>
<path d="M16 13.0576C17.6569 13.0576 19 11.7145 19 10.0576C19 8.40076 17.6569 7.05762 16 7.05762C14.3431 7.05762 13 8.40076 13 10.0576C13 11.7145 14.3431 13.0576 16 13.0576Z" stroke="#674337" stroke-width="1.5"/>
</svg>
