<svg width="20" height="21" viewBox="0 0 20 21" fill="none" xmlns="http://www.w3.org/2000/svg">
<g clip-path="url(#clip0_569_1951)">
<path d="M16.8725 1.05132L17.0588 0.865071C17.1989 0.724967 17.3654 0.613847 17.5485 0.538054C17.7316 0.462262 17.9279 0.423282 18.1261 0.42334C18.3243 0.423398 18.5205 0.462493 18.7036 0.538392C18.8867 0.614292 19.053 0.72551 19.1931 0.865696C19.3332 1.00588 19.4444 1.17229 19.5202 1.35542C19.5959 1.53855 19.6349 1.73482 19.6349 1.93301C19.6348 2.13121 19.5957 2.32745 19.5198 2.51054C19.4439 2.69362 19.3327 2.85997 19.1925 3.00007L19.0063 3.18507C19.3249 3.5424 19.4947 4.00806 19.481 4.48661C19.4673 4.96515 19.2711 5.42032 18.9325 5.75882L6.06751 18.6251C5.98709 18.7051 5.88641 18.7617 5.77626 18.7888L0.776264 20.0388C0.67163 20.0649 0.562034 20.0634 0.45813 20.0346C0.354226 20.0058 0.25955 19.9505 0.183302 19.8743C0.107055 19.798 0.0518318 19.7034 0.0230001 19.5995C-0.0058317 19.4956 -0.00729094 19.386 0.0187642 19.2813L1.26876 14.2813C1.29611 14.1716 1.35271 14.0714 1.43251 13.9913L13.485 1.93882C13.3645 1.85398 13.2178 1.81448 13.071 1.82729C12.9241 1.8401 12.7865 1.90439 12.6825 2.00882L8.56751 6.12507C8.5094 6.18318 8.44042 6.22928 8.36449 6.26073C8.28857 6.29217 8.20719 6.30836 8.12501 6.30836C8.04283 6.30836 7.96146 6.29217 7.88553 6.26073C7.80961 6.22928 7.74062 6.18318 7.68251 6.12507C7.6244 6.06696 7.57831 5.99798 7.54686 5.92205C7.51541 5.84613 7.49922 5.76475 7.49922 5.68257C7.49922 5.60039 7.51541 5.51902 7.54686 5.44309C7.57831 5.36717 7.6244 5.29818 7.68251 5.24007L11.8 1.12507C12.1387 0.78634 12.5943 0.590097 13.0731 0.576615C13.5519 0.563133 14.0178 0.733435 14.375 1.05257C14.7185 0.745619 15.1629 0.575836 15.6235 0.575605C16.0842 0.575375 16.5288 0.744713 16.8725 1.05132ZM16.0675 2.00882C15.9503 1.89165 15.7914 1.82583 15.6256 1.82583C15.4599 1.82583 15.301 1.89165 15.1838 2.00882L2.43751 14.7526L1.48251 18.5738L5.30376 17.6188L18.05 4.87507C18.1082 4.81701 18.1544 4.74804 18.1859 4.67211C18.2174 4.59618 18.2336 4.51478 18.2336 4.43257C18.2336 4.35036 18.2174 4.26896 18.1859 4.19303C18.1544 4.1171 18.1082 4.04813 18.05 3.99007L16.0675 2.00882Z" fill="#20B526"/>
</g>
<defs>
<clipPath id="clip0_569_1951">
<rect width="20" height="20" fill="white" transform="translate(0 0.0576172)"/>
</clipPath>
</defs>
</svg>
