<svg width="32" height="31" viewBox="0 0 32 31" fill="none" xmlns="http://www.w3.org/2000/svg">
<rect x="0.5" y="0.557617" width="31" height="29" rx="9.5" stroke="#8A6552"/>
<path d="M10 18H13.05L18.05 13C18.2 12.85 18.3127 12.679 18.388 12.487C18.4633 12.295 18.5007 12.1077 18.5 11.925C18.4993 11.7423 18.4577 11.5633 18.375 11.388C18.2923 11.2127 18.184 11.05 18.05 10.9L17.15 9.95C17 9.8 16.8333 9.68767 16.65 9.613C16.4667 9.53833 16.275 9.50067 16.075 9.5C15.8917 9.5 15.7043 9.53767 15.513 9.613C15.3217 9.68833 15.1507 9.80067 15 9.95L10 14.95V18ZM11.5 16.5V15.55L14.025 13.025L14.525 13.475L14.975 13.975L12.45 16.5H11.5ZM14.525 13.475L14.975 13.975L14.025 13.025L14.525 13.475ZM15.175 18H22V16H17.175L15.175 18ZM6 26V8C6 7.45 6.196 6.97933 6.588 6.588C6.98 6.19667 7.45067 6.00067 8 6H24C24.55 6 25.021 6.196 25.413 6.588C25.805 6.98 26.0007 7.45067 26 8V20C26 20.55 25.8043 21.021 25.413 21.413C25.0217 21.805 24.5507 22.0007 24 22H10L6 26ZM9.15 20H24V8H8V21.125L9.15 20Z" fill="#674337"/>
</svg>
