<svg width="20" height="20" viewBox="0 0 20 20" fill="none" xmlns="http://www.w3.org/2000/svg">
<path d="M5.90835 2.29175C5.02429 2.29175 4.17644 2.64294 3.55132 3.26806C2.9262 3.89318 2.57501 4.74103 2.57501 5.62508V10.7984C2.57501 11.6825 2.9262 12.5303 3.55132 13.1554C4.17644 13.7806 5.02429 14.1317 5.90835 14.1317H5.98585V17.2917C5.98577 17.3728 6.00931 17.452 6.05359 17.5199C6.09787 17.5877 6.16096 17.6412 6.23515 17.6737C6.30933 17.7063 6.3914 17.7165 6.4713 17.7031C6.5512 17.6897 6.62546 17.6533 6.68501 17.5984L10.4517 14.1317H14.0925C14.9766 14.1317 15.8244 13.7806 16.4495 13.1554C17.0747 12.5303 17.4258 11.6825 17.4258 10.7984V5.62508C17.4258 4.74103 17.0747 3.89318 16.4495 3.26806C15.8244 2.64294 14.9766 2.29175 14.0925 2.29175H5.90835Z" stroke="#20B526" stroke-width="1.25" stroke-linecap="round" stroke-linejoin="round"/>
</svg>
