<svg width="130" height="130" viewBox="0 0 130 130" fill="none" xmlns="http://www.w3.org/2000/svg">
<rect width="130" height="130" rx="30" fill="#CA2E55"/>
<path d="M96.7939 28.826C95.17 28.8346 93.0423 29.3849 90.4426 30.6199C71.6203 29.3074 48.9043 32.0502 33.7642 36.8061C22.7918 31.7359 20.976 36.7287 25.9627 43.3789C19.8603 61.4945 22.5355 79.9036 29.0256 93.0738C27.0257 101.726 32.1071 101.338 36.5041 97.8785C67.5228 99.5315 87.6958 94.8778 100.056 85.406C104.418 88.8989 107.624 84.3151 105.845 78.7115C108.011 65.6678 104.198 48.3212 99.2891 36.2475C101.716 31.9839 100.746 28.8048 96.7939 28.826ZM31.878 42.9867C41.4414 54.075 41.6162 79.3839 35.8284 94.4642C37.1082 77.9513 36.2834 53.8363 31.878 42.9867Z" fill="#FFE0B5"/>
</svg>
