<svg width="130" height="130" viewBox="0 0 130 130" fill="none" xmlns="http://www.w3.org/2000/svg">
<rect width="130" height="130" rx="30" fill="#4D2609"/>
<path d="M29.7064 84.8438H26.7188C25.948 84.8438 25.2087 84.5376 24.6637 83.9925C24.1187 83.4475 23.8125 82.7083 23.8125 81.9375V38.3438C23.8125 37.573 24.1187 36.8337 24.6637 36.2887C25.2087 35.7437 25.948 35.4375 26.7188 35.4375H79.0312C79.802 35.4375 80.5413 35.7437 81.0863 36.2887C81.6313 36.8337 81.9375 37.573 81.9375 38.3438V47.0625H96.8814C97.5755 47.0628 98.2465 47.3114 98.7732 47.7634C99.2998 48.2154 99.6473 48.841 99.7528 49.527L104.67 81.4958C104.734 81.9098 104.707 82.3327 104.592 82.7355C104.477 83.1383 104.276 83.5115 104.004 83.8295C103.731 84.1475 103.393 84.4027 103.012 84.5778C102.632 84.7529 102.218 84.8436 101.799 84.8438H93.4869C93.688 86.6709 93.5016 88.5198 92.94 90.2701C92.3784 92.0203 91.4542 93.6325 90.2275 95.0015C89.0009 96.3705 87.4995 97.4655 85.8212 98.2152C84.1429 98.9649 82.3254 99.3524 80.4873 99.3524C78.6491 99.3524 76.8317 98.9649 75.1534 98.2152C73.4751 97.4655 71.9736 96.3705 70.747 95.0015C69.5204 93.6325 68.5961 92.0203 68.0345 90.2701C67.4729 88.5198 67.2866 86.6709 67.4876 84.8438H55.6999C55.9009 86.6709 55.7146 88.5198 55.153 90.2701C54.5913 92.0203 53.6671 93.6325 52.4405 95.0015C51.2139 96.3705 49.7124 97.4655 48.0341 98.2152C46.3558 98.9649 44.5383 99.3524 42.7002 99.3524C40.8621 99.3524 39.0446 98.9649 37.3663 98.2152C35.688 97.4655 34.1866 96.3705 32.96 95.0015C31.7333 93.6325 30.8091 92.0203 30.2475 90.2701C29.6859 88.5198 29.4995 86.6709 29.7006 84.8438H29.7064ZM31.8279 79.0312C33.0209 77.2401 34.6378 75.7713 36.535 74.7554C38.4323 73.7395 40.551 73.2079 42.7031 73.2079C44.8552 73.2079 46.974 73.7395 48.8712 74.7554C50.7684 75.7713 52.3853 77.2401 53.5783 79.0312H69.615C71.1669 76.7062 73.4513 74.9102 76.1308 73.9628V41.25H29.625V79.0312H31.8279ZM91.3596 79.0312H98.4101L96.6257 67.4062H81.9375V73.3001C83.8306 73.5116 85.6547 74.134 87.2822 75.124C88.9096 76.1139 90.3012 77.4474 91.3596 79.0312ZM95.7306 61.5938L94.3937 52.875H81.9375V61.5938H95.7306ZM80.4844 93.5625C82.4113 93.5625 84.2594 92.797 85.6219 91.4344C86.9845 90.0719 87.75 88.2238 87.75 86.2969C87.75 84.3699 86.9845 82.5219 85.6219 81.1593C84.2594 79.7967 82.4113 79.0312 80.4844 79.0312C78.5574 79.0312 76.7094 79.7967 75.3468 81.1593C73.9842 82.5219 73.2188 84.3699 73.2188 86.2969C73.2188 88.2238 73.9842 90.0719 75.3468 91.4344C76.7094 92.797 78.5574 93.5625 80.4844 93.5625ZM42.7031 93.5625C44.6301 93.5625 46.4781 92.797 47.8407 91.4344C49.2033 90.0719 49.9688 88.2238 49.9688 86.2969C49.9688 84.3699 49.2033 82.5219 47.8407 81.1593C46.4781 79.7967 44.6301 79.0312 42.7031 79.0312C40.7762 79.0312 38.9281 79.7967 37.5656 81.1593C36.203 82.5219 35.4375 84.3699 35.4375 86.2969C35.4375 88.2238 36.203 90.0719 37.5656 91.4344C38.9281 92.797 40.7762 93.5625 42.7031 93.5625Z" fill="#FFE0B5"/>
</svg>
