<svg width="130" height="130" viewBox="0 0 130 130" fill="none" xmlns="http://www.w3.org/2000/svg">
<rect width="130" height="130" rx="30" fill="#F6A892"/>
<g clip-path="url(#clip0_393_1746)">
<path fill-rule="evenodd" clip-rule="evenodd" d="M108.884 66.825C108.266 65.4995 107.351 64.3341 106.211 63.4188C104.736 62.2382 103.153 61.2002 101.483 60.3188C99.7484 59.2552 97.951 58.2976 96.1006 57.4513C94.6855 56.8251 93.1825 56.42 91.6444 56.2501C87.4953 55.8453 83.3464 57.0217 80.0271 59.5438C78.4132 60.8155 77.0682 62.3953 76.0703 64.1914C75.0724 65.9876 74.4417 67.9642 74.2146 70.0063C74.0624 72.5259 74.4591 75.0485 75.3771 77.3998C74.7184 78.7561 73.9821 80.1123 73.2071 81.2748C72.2668 82.799 71.2335 84.2586 70.1071 85.6536C68.406 87.7461 66.546 89.5286 65.0735 91.5785C63.9523 93.1271 63.0766 94.8393 62.4773 96.6547C61.7664 98.382 61.5458 100.272 61.8398 102.116C62.1338 103.961 62.9309 105.689 64.1435 107.109C65.3745 108.328 66.8624 109.257 68.4982 109.826C70.1341 110.396 71.8767 110.593 73.5985 110.403L81.0734 109.783C81.2385 109.774 81.3998 109.731 81.5474 109.656C81.695 109.582 81.8257 109.478 81.9312 109.35C82.0366 109.223 82.1147 109.075 82.1605 108.916C82.2062 108.757 82.2187 108.591 82.1971 108.427C82.1675 108.095 82.009 107.787 81.7556 107.57C81.5022 107.352 81.1739 107.243 80.8409 107.264H73.5559C72.3607 107.308 71.1702 107.092 70.0669 106.63C68.9636 106.169 67.9738 105.473 67.166 104.591C66.5378 103.667 66.1609 102.596 66.0726 101.482C65.9843 100.368 66.1875 99.2508 66.6623 98.2396C67.1416 96.8033 67.8059 95.4355 68.6385 94.1708C69.9948 92.0783 71.5448 90.2997 72.9785 87.936C74.0196 86.3085 74.9496 84.6164 75.7685 82.8597C76.2335 81.9336 76.5823 81.0036 76.9698 80.0348C77.6842 80.9337 78.6863 81.5592 79.8077 81.8062C80.929 82.0531 82.1011 81.9066 83.1271 81.3911C83.9967 81.0327 84.7867 80.5058 85.4518 79.8407C86.1168 79.1757 86.6437 78.3856 87.0021 77.5161C87.8663 75.1911 88.2383 72.7111 88.0833 70.235C88.0824 70.0256 88.0301 69.8196 87.931 69.6352C87.8319 69.4508 87.689 69.2935 87.5149 69.1772C87.3408 69.0608 87.1408 68.989 86.9325 68.9681C86.7242 68.9471 86.5139 68.9776 86.3201 69.057C86.0902 69.1544 85.8951 69.319 85.7602 69.5292C85.6254 69.7394 85.5572 69.9854 85.5645 70.235C85.6187 72.3229 85.2222 74.3979 84.402 76.3187C83.9354 77.3688 83.0714 78.191 81.9995 78.605C81.4776 78.8236 80.8925 78.8372 80.3609 78.6433C79.8293 78.4494 79.3905 78.062 79.132 77.5587C78.0945 75.4178 77.7053 73.0204 78.0121 70.6612C78.231 69.1251 78.7552 67.6483 79.5538 66.3179C80.3525 64.9876 81.4093 63.8306 82.6621 62.9151C85.1603 61.113 88.2369 60.2986 91.2995 60.6288C92.3937 60.7609 93.4636 61.048 94.477 61.4813C96.2001 62.2408 97.878 63.0933 99.5106 64.0388C101.019 64.7183 102.453 65.532 103.812 66.4801C104.533 67.0226 105.137 67.7085 105.594 68.4951C105.89 69.3751 105.89 70.3275 105.594 71.2076C104.819 73.9937 102.843 73.8387 102.843 73.8387C102.107 73.8775 101.371 73.8775 100.634 73.8387C98.7356 73.8387 96.7594 73.4512 94.9769 73.4125H90.3656C90.2179 73.4223 90.0736 73.4612 89.941 73.527C89.8084 73.5927 89.6901 73.6841 89.5929 73.7957C89.4957 73.9073 89.4215 74.037 89.3745 74.1774C89.3276 74.3178 89.3089 74.4661 89.3194 74.6137C89.3242 74.7597 89.3585 74.9031 89.4201 75.0355C89.4817 75.168 89.5694 75.2866 89.678 75.3842C89.7865 75.4819 89.9137 75.5567 90.0518 75.6041C90.1899 75.6515 90.3362 75.6705 90.4819 75.66H95.5969C95.5969 80.155 95.2094 84.6073 95.2869 89.0985C95.2869 91.7722 95.5194 94.4847 95.7131 97.1585C96.0231 101.03 96.4494 105.215 96.7206 109.241C96.7154 109.407 96.7437 109.572 96.8037 109.727C96.8637 109.882 96.9542 110.023 97.0698 110.143C97.1855 110.262 97.324 110.357 97.477 110.422C97.63 110.486 97.7945 110.52 97.9606 110.519C98.2998 110.519 98.625 110.385 98.8648 110.145C99.1047 109.905 99.2394 109.58 99.2394 109.241C99.5106 105.366 99.7044 101.491 99.7431 97.3483V92.2333C99.7431 90.4935 99.7431 88.866 99.3944 87.1997C99.0456 83.3247 98.4644 79.7248 97.9606 75.97L100.518 76.3187C101.396 76.3755 102.275 76.3755 103.153 76.3187C103.835 76.3523 104.52 76.3523 105.207 76.3187C105.679 76.2793 106.126 76.0891 106.482 75.7762C107.652 74.6215 108.497 73.18 108.923 71.5912C109.411 70.0378 109.398 68.3702 108.884 66.825Z" fill="black"/>
<path fill-rule="evenodd" clip-rule="evenodd" d="M90.912 96.6896C90.5633 94.4034 90.0208 92.2334 89.5945 89.951C89.5897 89.805 89.5554 89.6616 89.4938 89.5292C89.4322 89.3968 89.3445 89.2782 89.2359 89.1805C89.1274 89.0828 89.0002 89.008 88.8621 88.9606C88.724 88.9132 88.5777 88.8942 88.432 88.9047C88.1373 88.9244 87.8612 89.0555 87.6597 89.2715C87.4581 89.4874 87.3464 89.7719 87.347 90.0672C87.1533 92.3922 86.9208 94.6397 86.882 96.9647C86.8226 97.9335 86.8226 98.9022 86.882 99.871C86.882 100.836 87.0758 101.805 87.192 102.773C87.5408 105.021 87.967 107.23 88.277 109.516C88.277 109.855 88.4117 110.18 88.6515 110.42C88.8914 110.66 89.2166 110.795 89.5558 110.795C89.8949 110.795 90.2202 110.66 90.46 110.42C90.6998 110.18 90.8345 109.855 90.8345 109.516C90.8345 107.23 91.1833 104.943 91.222 102.618V99.7121C91.1847 98.6989 91.0811 97.6893 90.912 96.6896ZM29.904 60.6289C28.7593 60.1606 27.5139 59.9932 26.2862 60.1424C25.0585 60.2916 23.8894 60.7526 22.8903 61.4814C22.1622 62.0162 21.545 62.6874 21.0729 63.4576C20.4505 64.5148 20.0055 65.6667 19.7554 66.8676C19.6835 67.1501 19.7241 67.4494 19.8687 67.7024C20.0133 67.9555 20.2506 68.1424 20.5304 68.2239C20.6622 68.2795 20.804 68.3075 20.9471 68.3062C21.0902 68.3048 21.2314 68.2742 21.3622 68.2161C21.4929 68.1579 21.6104 68.0736 21.7072 67.9683C21.8041 67.863 21.8784 67.739 21.9254 67.6039C22.1882 66.8364 22.5256 66.0966 22.9329 65.3951C23.2802 64.7791 23.7894 64.2699 24.4054 63.9226C25.0321 63.5725 25.7359 63.3833 26.4537 63.3721C27.1715 63.3608 27.8809 63.5277 28.5184 63.858C29.1558 64.1882 29.7014 64.6714 30.1062 65.2643C30.511 65.8572 30.7624 66.5412 30.8379 67.2551C31.1014 69.5698 31.2293 71.8935 31.2215 74.2262C31.2215 77.8687 31.2215 81.5112 31.0278 85.0336L31.4928 107.846C31.5449 108.142 31.6997 108.41 31.9301 108.603C32.1604 108.797 32.4514 108.903 32.7521 108.903C33.0528 108.903 33.3439 108.797 33.5742 108.603C33.8045 108.41 33.9594 108.142 34.0115 107.846L35.2128 85.1111C35.2128 81.5461 35.5615 77.7874 35.4453 74.1061C35.3675 71.5689 35.0693 69.0432 34.554 66.5576C34.3473 65.2555 33.8117 64.0276 32.998 62.9901C32.1843 61.9527 31.1194 61.1399 29.904 60.6289ZM43.9238 46.4541C45.7384 45.3559 47.7122 44.5455 49.775 44.0516C51.8705 43.5382 54.0128 43.2396 56.1688 43.1604C60.4308 42.7673 64.7092 43.7156 68.406 45.8729C69.4213 46.6479 70.266 47.6244 70.886 48.7404C72.0382 50.59 73.0844 52.5004 74.0248 54.4715C74.0879 54.6265 74.1819 54.7672 74.3009 54.885C74.4199 55.0027 74.5615 55.0952 74.7172 55.1567C74.8729 55.2183 75.0394 55.2477 75.2068 55.2431C75.3742 55.2386 75.5389 55.2002 75.691 55.1302C75.9972 54.9942 76.2378 54.7434 76.361 54.4318C76.4842 54.1202 76.4802 53.7727 76.3498 53.464C75.7685 52.0302 74.761 49.589 73.5598 47.1477C72.7976 45.5947 71.7454 44.2018 70.4598 43.0441C68.2853 41.4704 65.8235 40.3383 63.2135 39.7116C64.0903 39.0191 64.8952 38.2402 65.616 37.3866C66.236 36.6684 66.7785 35.8947 67.2435 35.0655C67.7137 34.2517 68.1012 33.3992 68.406 32.508C68.8607 31.1151 69.0275 29.6443 68.8963 28.185C68.7651 26.7257 68.3387 25.3082 67.6429 24.0188C66.947 22.7293 65.9964 21.5947 64.8486 20.684C63.7008 19.7732 62.3799 19.1053 60.966 18.7207C58.675 17.9134 56.1997 17.7838 53.8369 18.3474C51.4741 18.9109 49.3238 20.1438 47.6438 21.8982C47.047 22.3994 46.5174 22.9677 46.055 23.6032C44.9599 25.1518 44.2275 26.927 43.9122 28.7973C43.597 30.6675 43.7068 32.5848 44.2338 34.4067C44.8773 36.7379 46.2318 38.8104 48.1088 40.3355C45.7932 41.1225 43.6304 42.3023 41.715 43.823C40.405 44.8842 39.3251 46.2014 38.5414 47.6941C37.4992 49.7943 36.7806 52.0401 36.4101 54.3552C36.3574 54.5029 36.3363 54.66 36.3479 54.8164C36.3596 54.9728 36.4038 55.125 36.4779 55.2633C36.5519 55.4015 36.654 55.5227 36.7777 55.6191C36.9014 55.7155 37.0439 55.785 37.196 55.823C37.3481 55.8611 37.5065 55.8668 37.661 55.84C37.8155 55.8131 37.9627 55.7542 38.0931 55.6671C38.2234 55.5799 38.3341 55.4664 38.418 55.3339C38.5019 55.2014 38.5571 55.0529 38.5801 54.8977C39.0413 53.2044 39.6884 51.5652 40.5176 50.0152C41.3413 48.5627 42.5131 47.3376 43.9276 46.4502M48.0351 25.2617C48.2356 25.1633 48.4086 25.0169 48.5389 24.8355C49.8148 23.1509 51.6203 21.9445 53.6649 21.4103C55.7095 20.8761 57.8744 21.0453 59.8113 21.8905C60.7353 22.1984 61.5878 22.6895 62.3177 23.3343C63.0477 23.9791 63.6402 24.7644 64.0597 25.6434C64.4793 26.5224 64.7174 27.4769 64.7598 28.45C64.8021 29.423 64.6479 30.3946 64.3063 31.3067C64.1109 31.9263 63.8511 32.5238 63.5313 33.0892C63.2017 33.6493 62.8258 34.1807 62.4075 34.678C61.2135 36.0174 59.747 37.0863 58.1063 37.8129C56.6012 38.5397 54.8968 38.7442 53.2625 38.3941C51.9314 38.1135 50.6947 37.4958 49.6709 36.6002C48.647 35.7046 47.8703 34.561 47.4151 33.2791C46.9333 31.9773 46.7392 30.5865 46.8462 29.2025C46.9533 27.8184 47.3589 26.474 48.0351 25.2617ZM55.8975 81.4686C55.5651 81.4983 55.2574 81.6567 55.0402 81.9101C54.823 82.1635 54.7135 82.4918 54.735 82.8249C54.7847 87.1333 54.5776 91.4409 54.115 95.7247C54.0133 98.3592 53.5437 100.966 52.72 103.471C51.9462 104.726 50.8305 105.734 49.5038 106.377C49.3232 106.492 49.1217 106.57 48.911 106.606C48.7002 106.643 48.4843 106.638 48.2756 106.591C48.0668 106.544 47.8694 106.457 47.6945 106.334C47.5196 106.211 47.3707 106.054 47.2563 105.873C46.6837 104.881 46.3643 103.763 46.3263 102.618C46.0163 100.371 46.0938 97.9296 45.9775 96.1471C45.5125 91.6172 45.1638 86.9324 45.1638 82.2436C45.1638 77.5549 44.8925 72.8312 45.1638 68.1812C45.1652 67.8818 45.0547 67.5926 44.854 67.3704C44.6533 67.1482 44.3768 67.009 44.0788 66.98C43.7871 66.9692 43.5026 67.0724 43.2856 67.2677C43.0687 67.463 42.9362 67.735 42.9163 68.0262C42.49 72.7537 42.2188 77.4812 42.0638 82.2824C41.9088 87.0874 42.0638 91.811 42.0638 96.5346C42.0638 99.1929 42.2188 101.841 42.5288 104.478C42.7535 105.85 43.2418 107.164 43.9625 108.353C44.5685 109.399 45.5132 110.207 46.6406 110.643C47.7679 111.079 49.0104 111.118 50.1625 110.752C52.8301 109.779 55.0493 107.863 56.4013 105.366C57.1364 103.034 57.528 100.607 57.5638 98.1621C57.8738 93.0006 57.8738 87.8365 57.5638 82.6699C57.5535 82.473 57.4991 82.281 57.4048 82.1079C57.3104 81.9349 57.1784 81.7852 57.0185 81.6699C56.8586 81.5546 56.6749 81.4767 56.4809 81.4419C56.2869 81.407 56.0875 81.4162 55.8975 81.4686Z" fill="black"/>
<path fill-rule="evenodd" clip-rule="evenodd" d="M108.884 66.825C108.266 65.4995 107.351 64.3341 106.211 63.4188C104.736 62.2382 103.153 61.2002 101.483 60.3188C99.7484 59.2552 97.951 58.2976 96.1006 57.4513C94.6855 56.8251 93.1825 56.42 91.6444 56.2501C87.4953 55.8453 83.3464 57.0217 80.0271 59.5438C78.4132 60.8155 77.0682 62.3953 76.0703 64.1914C75.0724 65.9876 74.4417 67.9642 74.2146 70.0063C74.0624 72.5259 74.4591 75.0485 75.3771 77.3998C74.7184 78.7561 73.9821 80.1123 73.2071 81.2748C72.2668 82.799 71.2335 84.2586 70.1071 85.6536C68.406 87.7461 66.546 89.5286 65.0735 91.5785C63.9523 93.1271 63.0766 94.8393 62.4773 96.6547C61.7664 98.382 61.5458 100.272 61.8398 102.116C62.1338 103.961 62.9309 105.689 64.1435 107.109C65.3745 108.328 66.8624 109.257 68.4982 109.826C70.1341 110.396 71.8767 110.593 73.5985 110.403L81.0734 109.783C81.2385 109.774 81.3998 109.731 81.5474 109.656C81.695 109.582 81.8257 109.478 81.9312 109.35C82.0366 109.223 82.1147 109.075 82.1605 108.916C82.2062 108.757 82.2187 108.591 82.1971 108.427C82.1675 108.095 82.009 107.787 81.7556 107.57C81.5022 107.352 81.1739 107.243 80.8409 107.264H73.5559C72.3607 107.308 71.1702 107.092 70.0669 106.63C68.9636 106.169 67.9738 105.473 67.166 104.591C66.5378 103.667 66.1609 102.596 66.0726 101.482C65.9843 100.368 66.1875 99.2508 66.6623 98.2396C67.1416 96.8033 67.8059 95.4355 68.6385 94.1708C69.9948 92.0783 71.5448 90.2997 72.9785 87.936C74.0196 86.3085 74.9496 84.6164 75.7685 82.8597C76.2335 81.9336 76.5823 81.0036 76.9698 80.0348C77.6842 80.9337 78.6863 81.5592 79.8077 81.8062C80.929 82.0531 82.1011 81.9066 83.1271 81.3911C83.9967 81.0327 84.7867 80.5058 85.4518 79.8407C86.1168 79.1757 86.6437 78.3856 87.0021 77.5161C87.8663 75.1911 88.2383 72.7111 88.0833 70.235C88.0824 70.0256 88.0301 69.8196 87.931 69.6352C87.8319 69.4508 87.689 69.2935 87.5149 69.1772C87.3408 69.0608 87.1408 68.989 86.9325 68.9681C86.7242 68.9471 86.5139 68.9776 86.3201 69.057C86.0902 69.1544 85.8951 69.319 85.7602 69.5292C85.6254 69.7394 85.5572 69.9854 85.5645 70.235C85.6187 72.3229 85.2222 74.3979 84.402 76.3187C83.9354 77.3688 83.0714 78.191 81.9995 78.605C81.4776 78.8236 80.8925 78.8372 80.3609 78.6433C79.8293 78.4494 79.3905 78.062 79.132 77.5587C78.0945 75.4178 77.7053 73.0204 78.0121 70.6612C78.231 69.1251 78.7552 67.6483 79.5538 66.3179C80.3525 64.9876 81.4093 63.8306 82.6621 62.9151C85.1603 61.113 88.2369 60.2986 91.2995 60.6288C92.3937 60.7609 93.4636 61.048 94.477 61.4813C96.2001 62.2408 97.878 63.0933 99.5106 64.0388C101.019 64.7183 102.453 65.532 103.812 66.4801C104.533 67.0226 105.137 67.7085 105.594 68.4951C105.89 69.3751 105.89 70.3275 105.594 71.2076C104.819 73.9937 102.843 73.8387 102.843 73.8387C102.107 73.8775 101.371 73.8775 100.634 73.8387C98.7356 73.8387 96.7594 73.4512 94.9769 73.4125H90.3656C90.2179 73.4223 90.0736 73.4612 89.941 73.527C89.8084 73.5927 89.6901 73.6841 89.5929 73.7957C89.4957 73.9073 89.4215 74.037 89.3745 74.1774C89.3276 74.3178 89.3089 74.4661 89.3194 74.6137C89.3242 74.7597 89.3585 74.9031 89.4201 75.0355C89.4817 75.168 89.5694 75.2866 89.678 75.3842C89.7865 75.4819 89.9137 75.5567 90.0518 75.6041C90.1899 75.6515 90.3362 75.6705 90.4819 75.66H95.5969C95.5969 80.155 95.2094 84.6073 95.2869 89.0985C95.2869 91.7722 95.5194 94.4847 95.7131 97.1585C96.0231 101.03 96.4494 105.215 96.7206 109.241C96.7154 109.407 96.7437 109.572 96.8037 109.727C96.8637 109.882 96.9542 110.023 97.0698 110.143C97.1855 110.262 97.324 110.357 97.477 110.422C97.63 110.486 97.7945 110.52 97.9606 110.519C98.2998 110.519 98.625 110.385 98.8648 110.145C99.1047 109.905 99.2394 109.58 99.2394 109.241C99.5106 105.366 99.7044 101.491 99.7431 97.3483V92.2333C99.7431 90.4935 99.7431 88.866 99.3944 87.1997C99.0456 83.3247 98.4644 79.7248 97.9606 75.97L100.518 76.3187C101.396 76.3755 102.275 76.3755 103.153 76.3187C103.835 76.3523 104.52 76.3523 105.207 76.3187C105.679 76.2793 106.126 76.0891 106.482 75.7762C107.652 74.6215 108.497 73.18 108.923 71.5912C109.411 70.0378 109.398 68.3702 108.884 66.825Z" fill="#FFE0B5"/>
<path fill-rule="evenodd" clip-rule="evenodd" d="M90.912 96.6896C90.5633 94.4034 90.0208 92.2334 89.5945 89.951C89.5897 89.805 89.5554 89.6616 89.4938 89.5292C89.4322 89.3968 89.3445 89.2782 89.2359 89.1805C89.1274 89.0828 89.0002 89.008 88.8621 88.9606C88.724 88.9132 88.5777 88.8942 88.432 88.9047C88.1373 88.9244 87.8612 89.0555 87.6597 89.2715C87.4581 89.4874 87.3464 89.7719 87.347 90.0672C87.1533 92.3922 86.9208 94.6397 86.882 96.9647C86.8226 97.9335 86.8226 98.9022 86.882 99.871C86.882 100.836 87.0758 101.805 87.192 102.773C87.5408 105.021 87.967 107.23 88.277 109.516C88.277 109.855 88.4117 110.18 88.6515 110.42C88.8914 110.66 89.2166 110.795 89.5558 110.795C89.8949 110.795 90.2202 110.66 90.46 110.42C90.6998 110.18 90.8345 109.855 90.8345 109.516C90.8345 107.23 91.1833 104.943 91.222 102.618V99.7121C91.1847 98.6989 91.0811 97.6893 90.912 96.6896ZM29.904 60.6289C28.7593 60.1606 27.5139 59.9932 26.2862 60.1424C25.0585 60.2916 23.8894 60.7526 22.8903 61.4814C22.1622 62.0162 21.545 62.6874 21.0729 63.4576C20.4505 64.5148 20.0055 65.6667 19.7554 66.8676C19.6835 67.1501 19.7241 67.4494 19.8687 67.7024C20.0133 67.9555 20.2506 68.1424 20.5304 68.2239C20.6622 68.2795 20.804 68.3075 20.9471 68.3062C21.0902 68.3048 21.2314 68.2742 21.3622 68.2161C21.4929 68.1579 21.6104 68.0736 21.7072 67.9683C21.8041 67.863 21.8784 67.739 21.9254 67.6039C22.1882 66.8364 22.5256 66.0966 22.9329 65.3951C23.2802 64.7791 23.7894 64.2699 24.4054 63.9226C25.0321 63.5725 25.7359 63.3833 26.4537 63.3721C27.1715 63.3608 27.8809 63.5277 28.5184 63.858C29.1558 64.1882 29.7014 64.6714 30.1062 65.2643C30.511 65.8572 30.7624 66.5412 30.8379 67.2551C31.1014 69.5698 31.2293 71.8935 31.2215 74.2262C31.2215 77.8687 31.2215 81.5112 31.0278 85.0336L31.4928 107.846C31.5449 108.142 31.6997 108.41 31.9301 108.603C32.1604 108.797 32.4514 108.903 32.7521 108.903C33.0528 108.903 33.3439 108.797 33.5742 108.603C33.8045 108.41 33.9594 108.142 34.0115 107.846L35.2128 85.1111C35.2128 81.5461 35.5615 77.7874 35.4453 74.1061C35.3675 71.5689 35.0693 69.0432 34.554 66.5576C34.3473 65.2555 33.8117 64.0276 32.998 62.9901C32.1843 61.9527 31.1194 61.1399 29.904 60.6289ZM43.9238 46.4541C45.7384 45.3559 47.7122 44.5455 49.775 44.0516C51.8705 43.5382 54.0128 43.2396 56.1688 43.1604C60.4308 42.7673 64.7092 43.7156 68.406 45.8729C69.4213 46.6479 70.266 47.6244 70.886 48.7404C72.0382 50.59 73.0844 52.5004 74.0248 54.4715C74.0879 54.6265 74.1819 54.7672 74.3009 54.885C74.4199 55.0027 74.5615 55.0952 74.7172 55.1567C74.8729 55.2183 75.0394 55.2477 75.2068 55.2431C75.3742 55.2386 75.5389 55.2002 75.691 55.1302C75.9972 54.9942 76.2378 54.7434 76.361 54.4318C76.4842 54.1202 76.4802 53.7727 76.3498 53.464C75.7685 52.0302 74.761 49.589 73.5598 47.1477C72.7976 45.5947 71.7454 44.2018 70.4598 43.0441C68.2853 41.4704 65.8235 40.3383 63.2135 39.7116C64.0903 39.0191 64.8952 38.2402 65.616 37.3866C66.236 36.6684 66.7785 35.8947 67.2435 35.0655C67.7137 34.2517 68.1012 33.3992 68.406 32.508C68.8607 31.1151 69.0275 29.6443 68.8963 28.185C68.7651 26.7257 68.3387 25.3082 67.6429 24.0188C66.947 22.7293 65.9964 21.5947 64.8486 20.684C63.7008 19.7732 62.3799 19.1053 60.966 18.7207C58.675 17.9134 56.1997 17.7838 53.8369 18.3474C51.4741 18.9109 49.3238 20.1438 47.6438 21.8982C47.047 22.3994 46.5174 22.9677 46.055 23.6032C44.9599 25.1518 44.2275 26.927 43.9122 28.7973C43.597 30.6675 43.7068 32.5848 44.2338 34.4067C44.8773 36.7379 46.2318 38.8104 48.1088 40.3355C45.7932 41.1225 43.6304 42.3023 41.715 43.823C40.405 44.8842 39.3251 46.2014 38.5414 47.6941C37.4992 49.7943 36.7806 52.0401 36.4101 54.3552C36.3574 54.5029 36.3363 54.66 36.3479 54.8164C36.3596 54.9728 36.4038 55.125 36.4779 55.2633C36.5519 55.4015 36.654 55.5227 36.7777 55.6191C36.9014 55.7155 37.0439 55.785 37.196 55.823C37.3481 55.8611 37.5065 55.8668 37.661 55.84C37.8155 55.8131 37.9627 55.7542 38.0931 55.6671C38.2234 55.5799 38.3341 55.4664 38.418 55.3339C38.5019 55.2014 38.5571 55.0529 38.5801 54.8977C39.0413 53.2044 39.6884 51.5652 40.5176 50.0152C41.3413 48.5627 42.5131 47.3376 43.9276 46.4502M48.0351 25.2617C48.2356 25.1633 48.4086 25.0169 48.5389 24.8355C49.8148 23.1509 51.6203 21.9445 53.6649 21.4103C55.7095 20.8761 57.8744 21.0453 59.8113 21.8905C60.7353 22.1984 61.5878 22.6895 62.3177 23.3343C63.0477 23.9791 63.6402 24.7644 64.0597 25.6434C64.4793 26.5224 64.7174 27.4769 64.7598 28.45C64.8021 29.423 64.6479 30.3946 64.3063 31.3067C64.1109 31.9263 63.8511 32.5238 63.5313 33.0892C63.2017 33.6493 62.8258 34.1807 62.4075 34.678C61.2135 36.0174 59.747 37.0863 58.1063 37.8129C56.6012 38.5397 54.8968 38.7442 53.2625 38.3941C51.9314 38.1135 50.6947 37.4958 49.6709 36.6002C48.647 35.7046 47.8703 34.561 47.4151 33.2791C46.9333 31.9773 46.7392 30.5865 46.8462 29.2025C46.9533 27.8184 47.3589 26.474 48.0351 25.2617ZM55.8975 81.4686C55.5651 81.4983 55.2574 81.6567 55.0402 81.9101C54.823 82.1635 54.7135 82.4918 54.735 82.8249C54.7847 87.1333 54.5776 91.4409 54.115 95.7247C54.0133 98.3592 53.5437 100.966 52.72 103.471C51.9462 104.726 50.8305 105.734 49.5038 106.377C49.3232 106.492 49.1217 106.57 48.911 106.606C48.7002 106.643 48.4843 106.638 48.2756 106.591C48.0668 106.544 47.8694 106.457 47.6945 106.334C47.5196 106.211 47.3707 106.054 47.2563 105.873C46.6837 104.881 46.3643 103.763 46.3263 102.618C46.0163 100.371 46.0938 97.9296 45.9775 96.1471C45.5125 91.6172 45.1638 86.9324 45.1638 82.2436C45.1638 77.5549 44.8925 72.8312 45.1638 68.1812C45.1652 67.8818 45.0547 67.5926 44.854 67.3704C44.6533 67.1482 44.3768 67.009 44.0788 66.98C43.7871 66.9692 43.5026 67.0724 43.2856 67.2677C43.0687 67.463 42.9362 67.735 42.9163 68.0262C42.49 72.7537 42.2188 77.4812 42.0638 82.2824C41.9088 87.0874 42.0638 91.811 42.0638 96.5346C42.0638 99.1929 42.2188 101.841 42.5288 104.478C42.7535 105.85 43.2418 107.164 43.9625 108.353C44.5685 109.399 45.5132 110.207 46.6406 110.643C47.7679 111.079 49.0104 111.118 50.1625 110.752C52.8301 109.779 55.0493 107.863 56.4013 105.366C57.1364 103.034 57.528 100.607 57.5638 98.1621C57.8738 93.0006 57.8738 87.8365 57.5638 82.6699C57.5535 82.473 57.4991 82.281 57.4048 82.1079C57.3104 81.9349 57.1784 81.7852 57.0185 81.6699C56.8586 81.5546 56.6749 81.4767 56.4809 81.4419C56.2869 81.407 56.0875 81.4162 55.8975 81.4686Z" fill="#FFE0B5"/>
</g>
<defs>
<clipPath id="clip0_393_1746">
<rect width="93" height="93" fill="white" transform="translate(18 18)"/>
</clipPath>
</defs>
</svg>
