<svg width="24" height="24" viewBox="0 0 24 24" fill="none" xmlns="http://www.w3.org/2000/svg">
  <path d="M12 2C10.5 2 9.5 3 9.5 4.5C9.5 6 10.5 7 12 7C13.5 7 14.5 6 14.5 4.5C14.5 3 13.5 2 12 2Z" fill="black"/>
  <path d="M6 6C4.5 6 3.5 7 3.5 8.5C3.5 10 4.5 11 6 11C7.5 11 8.5 10 8.5 8.5C8.5 7 7.5 6 6 6Z" fill="black"/>
  <path d="M18 6C16.5 6 15.5 7 15.5 8.5C15.5 10 16.5 11 18 11C19.5 11 20.5 10 20.5 8.5C20.5 7 19.5 6 18 6Z" fill="black"/>
  <path d="M8 12C6.5 12 5.5 13 5.5 14.5C5.5 16 6.5 17 8 17C9.5 17 10.5 16 10.5 14.5C10.5 13 9.5 12 8 12Z" fill="black"/>
  <path d="M16 12C14.5 12 13.5 13 13.5 14.5C13.5 16 14.5 17 16 17C17.5 17 18.5 16 18.5 14.5C18.5 13 17.5 12 16 12Z" fill="black"/>
</svg> 