<svg width="30" height="30" viewBox="0 0 30 30" fill="none" xmlns="http://www.w3.org/2000/svg">
<path d="M20.75 7.275C19.8957 6.29941 19.4249 5.04675 19.425 3.75H15.5625V19.25C15.5333 20.089 15.1794 20.8838 14.5754 21.4669C13.9714 22.0499 13.1645 22.3755 12.325 22.375C10.55 22.375 9.07501 20.925 9.07501 19.125C9.07501 16.975 11.15 15.3625 13.2875 16.025V12.075C8.97501 11.5 5.20001 14.85 5.20001 19.125C5.20001 23.2875 8.65001 26.25 12.3125 26.25C16.2375 26.25 19.425 23.0625 19.425 19.125V11.2625C20.9913 12.3873 22.8717 12.9908 24.8 12.9875V9.125C24.8 9.125 22.45 9.2375 20.75 7.275Z" fill="white"/>
</svg>
