<svg width="130" height="130" viewBox="0 0 130 130" fill="none" xmlns="http://www.w3.org/2000/svg">
<rect width="130" height="130" rx="30" fill="#9C6F4B"/>
<path d="M56.75 76.125L78.3958 54.4831C77.4944 53.5821 76.8292 52.4727 76.4591 51.2532C76.0889 50.0336 76.0252 48.7417 76.2736 47.4917C76.522 46.2416 77.0749 45.0722 77.8832 44.0869C78.6915 43.1015 79.7303 42.3307 80.9076 41.8428C82.085 41.3548 83.3645 41.1647 84.6328 41.2893C85.9012 41.414 87.1192 41.8494 88.179 42.5572C89.2389 43.265 90.1078 44.2232 90.7089 45.347C91.31 46.4708 91.6246 47.7255 91.625 49C92.8998 48.9991 94.1551 49.3126 95.2797 49.9129C96.4043 50.5131 97.3635 51.3815 98.0723 52.4411C98.781 53.5007 99.2175 54.7187 99.3429 55.9873C99.4684 57.2559 99.2789 58.5359 98.7914 59.7138C98.3039 60.8916 97.5334 61.9311 96.5481 62.74C95.5628 63.5488 94.3932 64.1022 93.143 64.351C91.8927 64.5997 90.6004 64.5363 89.3805 64.1662C88.1606 63.7961 87.0509 63.1308 86.1496 62.2292L72.25 76.125" stroke="#FFE0B5" stroke-width="7.75" stroke-linecap="round" stroke-linejoin="round"/>
<path d="M64.5 68.375L50.6042 54.4831C51.5055 53.5821 52.1707 52.4727 52.5409 51.2532C52.911 50.0336 52.9747 48.7417 52.7263 47.4917C52.4779 46.2416 51.9251 45.0722 51.1168 44.0869C50.3085 43.1015 49.2697 42.3307 48.0923 41.8428C46.915 41.3548 45.6355 41.1647 44.3672 41.2893C43.0988 41.414 41.8808 41.8494 40.8209 42.5572C39.7611 43.265 38.8921 44.2232 38.2911 45.347C37.69 46.4708 37.3753 47.7255 37.375 49C36.1002 48.9991 34.8449 49.3126 33.7203 49.9129C32.5956 50.5131 31.6365 51.3815 30.9277 52.4411C30.2189 53.5007 29.7825 54.7187 29.6571 55.9873C29.5316 57.2559 29.721 58.5359 30.2085 59.7138C30.6961 60.8916 31.4666 61.9311 32.4519 62.74C33.4371 63.5488 34.6067 64.1022 35.857 64.351C37.1073 64.5997 38.3996 64.5363 39.6195 64.1662C40.8393 63.7961 41.9491 63.1308 42.8504 62.2292L56.75 76.125M29.625 95.5H99.375C98.6969 89.0249 99.1967 82.5381 91.625 76.125H37.375C32.2083 80 29.625 86.4583 29.625 95.5Z" stroke="#FFE0B5" stroke-width="7.75" stroke-linecap="round" stroke-linejoin="round"/>
</svg>
