<svg width="30" height="30" viewBox="0 0 30 30" fill="none" xmlns="http://www.w3.org/2000/svg">
<path fill-rule="evenodd" clip-rule="evenodd" d="M18.7775 4.17883C19.4125 4.07008 20.1237 4.03383 20.7937 4.14758C21.9872 4.34917 23.093 4.90337 23.9687 5.73883C24.5387 5.75133 25.1 5.63883 25.5962 5.47883C26.0757 5.32202 26.5361 5.11196 26.9687 4.85258L26.98 4.84508C27.16 4.72515 27.3759 4.67115 27.5912 4.69223C27.8065 4.71332 28.0078 4.80819 28.1611 4.96076C28.3144 5.11334 28.4103 5.31424 28.4324 5.5294C28.4545 5.74456 28.4015 5.96075 28.2825 6.14133C28.0237 6.53508 27.6625 7.23758 27.2587 8.02508L27.065 8.40133C26.8337 8.85133 26.5962 9.30633 26.375 9.69633C26.2362 9.94133 26.0875 10.1901 25.9375 10.4051V10.7476C25.9529 12.7959 25.5601 14.8267 24.7822 16.7216C24.0042 18.6165 22.8567 20.3374 21.4064 21.784C19.9562 23.2306 18.2324 24.3739 16.3356 25.1471C14.4388 25.9204 12.407 26.3081 10.3587 26.2876C7.39033 26.2917 4.4842 25.4364 1.99123 23.8251C1.81227 23.7101 1.67772 23.5377 1.60971 23.3361C1.54169 23.1346 1.54423 22.9159 1.61693 22.716C1.68963 22.516 1.82815 22.3468 2.00974 22.236C2.19134 22.1252 2.40521 22.0795 2.61623 22.1063C2.99123 22.1522 3.36831 22.1751 3.74748 22.1751C5.09827 22.1702 6.43204 21.8734 7.65748 21.3051C6.88985 20.9559 6.20334 20.4507 5.64165 19.8216C5.07996 19.1926 4.6554 18.4534 4.39498 17.6513C4.34536 17.4978 4.3362 17.3341 4.36839 17.176C4.40058 17.0179 4.47303 16.8707 4.57873 16.7488L4.59123 16.7363C3.95699 16.1711 3.44864 15.4788 3.09914 14.7044C2.74964 13.9301 2.56681 13.0909 2.56248 12.2413V12.1751C2.56239 11.9693 2.63002 11.7692 2.75495 11.6056C2.87988 11.442 3.05515 11.3241 3.25373 11.2701C2.83064 10.4259 2.61103 9.49437 2.61248 8.55008C2.61177 7.47904 2.89192 6.42654 3.42498 5.49758C3.50071 5.36571 3.60739 5.25424 3.73581 5.17279C3.86423 5.09134 4.01053 5.04235 4.1621 5.03004C4.31368 5.01774 4.46597 5.04249 4.60584 5.10217C4.74571 5.16184 4.86897 5.25465 4.96498 5.37258C7.1523 8.06526 10.2844 9.82219 13.7225 10.2851C13.6926 9.16031 13.9764 8.04943 14.542 7.07675C15.1076 6.10407 15.9327 5.30798 16.925 4.77758C17.4275 4.51008 18.0925 4.29633 18.7775 4.17883ZM4.67748 13.6138C4.92021 14.297 5.33615 14.9054 5.88459 15.3796C6.43303 15.8537 7.09518 16.1774 7.80623 16.3188C8.01109 16.3596 8.19646 16.4677 8.3329 16.6259C8.46935 16.784 8.54907 16.9832 8.55941 17.1919C8.56975 17.4005 8.51011 17.6066 8.38997 17.7775C8.26983 17.9484 8.09605 18.0742 7.89623 18.1351C7.5554 18.2384 7.2079 18.3105 6.85373 18.3513C7.23791 18.8466 7.72808 19.2496 8.28829 19.5308C8.84849 19.812 9.46453 19.9642 10.0912 19.9763C10.2846 19.98 10.472 20.0433 10.6279 20.1576C10.7839 20.272 10.9006 20.4317 10.9622 20.615C11.0238 20.7983 11.0272 20.9961 10.972 21.1814C10.9168 21.3667 10.8056 21.5304 10.6537 21.6501C9.34963 22.6746 7.83516 23.3981 6.21873 23.7688C7.55722 24.1977 8.95447 24.4149 10.36 24.4126H10.3712C12.1713 24.4314 13.957 24.0914 15.6241 23.4123C17.2913 22.7333 18.8064 21.7289 20.081 20.4577C21.3557 19.1866 22.3642 17.6742 23.0478 16.009C23.7314 14.3437 24.0764 12.5589 24.0625 10.7588V10.0901C24.0623 9.86244 24.1449 9.64251 24.295 9.47133C24.3825 9.37258 24.5325 9.14508 24.745 8.77133C24.945 8.41883 25.1675 7.99383 25.3987 7.54508L25.44 7.46258C24.787 7.60935 24.1147 7.65029 23.4487 7.58383C23.2235 7.5593 23.0148 7.45407 22.8612 7.28758C22.2326 6.60593 21.3955 6.15221 20.4812 5.99758C20.0201 5.9319 19.5514 5.94246 19.0937 6.02883C18.6476 6.09818 18.2144 6.23429 17.8087 6.43258C16.9908 6.86958 16.3411 7.56573 15.9615 8.41182C15.5819 9.25791 15.4938 10.2061 15.7112 11.1076C15.7454 11.2493 15.7461 11.3971 15.7132 11.5392C15.6803 11.6813 15.6147 11.8137 15.5216 11.9259C15.4285 12.0382 15.3105 12.1272 15.177 12.1858C15.0435 12.2445 14.8981 12.2712 14.7525 12.2638C10.9122 12.0684 7.28174 10.4525 4.56623 7.73008C4.51341 8.00063 4.48704 8.27567 4.48748 8.55133V8.55383C4.48608 9.24226 4.65493 9.92036 4.97902 10.5277C5.3031 11.1351 5.77235 11.6529 6.34498 12.0351C6.51314 12.1483 6.64009 12.3129 6.70679 12.5043C6.7735 12.6957 6.77638 12.9036 6.71499 13.0968C6.6536 13.2899 6.53125 13.458 6.36629 13.5758C6.20132 13.6936 6.00263 13.7547 5.79998 13.7501C5.42285 13.7382 5.04756 13.6922 4.67873 13.6126" fill="white"/>
</svg>
