<svg width="32" height="31" viewBox="0 0 32 31" fill="none" xmlns="http://www.w3.org/2000/svg">
<rect x="0.5" y="0.557617" width="31" height="29" rx="9.5" stroke="#8A6552"/>
<path d="M19 20.0576C19.5304 20.0576 20.0391 19.8469 20.4142 19.4718C20.7893 19.0968 21 18.5881 21 18.0576C21 17.5272 20.7893 17.0185 20.4142 16.6434C20.0391 16.2683 19.5304 16.0576 19 16.0576C18.4696 16.0576 17.9609 16.2683 17.5858 16.6434C17.2107 17.0185 17 17.5272 17 18.0576C17 18.5881 17.2107 19.0968 17.5858 19.4718C17.9609 19.8469 18.4696 20.0576 19 20.0576Z" fill="#674337"/>
<path fill-rule="evenodd" clip-rule="evenodd" d="M10 6.05762C9.20435 6.05762 8.44129 6.37369 7.87868 6.9363C7.31607 7.49891 7 8.26197 7 9.05762V21.0576C7 21.8533 7.31607 22.6163 7.87868 23.1789C8.44129 23.7415 9.20435 24.0576 10 24.0576H22C22.7956 24.0576 23.5587 23.7415 24.1213 23.1789C24.6839 22.6163 25 21.8533 25 21.0576V9.05762C25 8.26197 24.6839 7.49891 24.1213 6.9363C23.5587 6.37369 22.7956 6.05762 22 6.05762H10ZM9 21.0576V10.0576H23V21.0576C23 21.3228 22.8946 21.5772 22.7071 21.7647C22.5196 21.9523 22.2652 22.0576 22 22.0576H10C9.73478 22.0576 9.48043 21.9523 9.29289 21.7647C9.10536 21.5772 9 21.3228 9 21.0576Z" fill="#674337"/>
</svg>
