<svg width="18" height="17" viewBox="0 0 18 17" fill="none" xmlns="http://www.w3.org/2000/svg">
<path d="M8.99984 14.2752L4.84984 16.7752C4.66651 16.8919 4.47484 16.9419 4.27484 16.9252C4.07484 16.9085 3.89984 16.8419 3.74984 16.7252C3.59984 16.6085 3.48317 16.4629 3.39984 16.2882C3.31651 16.1135 3.29984 15.9175 3.34984 15.7002L4.44984 10.9752L0.774841 7.8002C0.608174 7.6502 0.504174 7.4792 0.462841 7.2872C0.421507 7.0952 0.433841 6.90786 0.499841 6.7252C0.565841 6.54253 0.665841 6.39253 0.799841 6.2752C0.933841 6.15786 1.11717 6.08286 1.34984 6.0502L6.19984 5.6252L8.07484 1.1752C8.15817 0.975195 8.28751 0.825195 8.46284 0.725195C8.63817 0.625195 8.81717 0.575195 8.99984 0.575195C9.18251 0.575195 9.36151 0.625195 9.53684 0.725195C9.71217 0.825195 9.84151 0.975195 9.92484 1.1752L11.7998 5.6252L16.6498 6.0502C16.8832 6.08353 17.0665 6.15853 17.1998 6.2752C17.3332 6.39186 17.4332 6.54186 17.4998 6.7252C17.5665 6.90853 17.5792 7.0962 17.5378 7.2882C17.4965 7.4802 17.3922 7.65086 17.2248 7.8002L13.5498 10.9752L14.6498 15.7002C14.6998 15.9169 14.6832 16.1129 14.5998 16.2882C14.5165 16.4635 14.3998 16.6092 14.2498 16.7252C14.0998 16.8412 13.9248 16.9079 13.7248 16.9252C13.5248 16.9425 13.3332 16.8925 13.1498 16.7752L8.99984 14.2752Z" fill="#FFC107"/>
</svg>
